<svg width="396" height="109.14146341463415" viewBox="0 0 410 113" class="css-1j8o68f"><defs id="SvgjsDefs1015"></defs><g id="SvgjsG1016" featurekey="rootContainer" transform="matrix(1,0,0,1,0,0)" fill="#111111"><rect xmlns="http://www.w3.org/2000/svg" width="410" height="113" rx="10" ry="10"></rect></g><g id="SvgjsG1017" featurekey="symbolFeature-0" transform="matrix(0.00161255849614436,0,0,0.00161255849614436,12.91389042194929,16.350884057659634)" fill="#f6f6f6"><defs xmlns="http://www.w3.org/2000/svg"></defs><g xmlns="http://www.w3.org/2000/svg"><path class="fil0" d="M25000 3278.73c493.02,0 918.58,-246.34 1327.04,-482.78 525.28,-304.08 1028.05,-595.09 1698.43,-518.86 3721.4,423.17 6326.49,1652.68 8052.58,3408.04 1971.15,2004.58 2782.44,4674.01 2792.13,7602.3 18.52,15.14 35.65,31.92 51.19,50.1 2241.75,918.62 3839.36,2311.04 4911.93,4024.41 1245.57,1989.73 1772.37,4398.12 1772.37,6988.3 0,861.73 -58.32,1703.25 -181.89,2515.93 3.68,22.03 5.58,44.65 5.49,67.74 -0.26,66.76 -16.95,129.61 -46.19,184.77 -262.06,1540.45 -764.95,2972.25 -1558.02,4234.56 -1082.85,1723.55 -2700.08,3121.6 -4974.13,4037.89 3.6,78.94 6.75,160.41 9.45,244.39 6.74,209.54 10.07,391.6 10.07,546.87 0,2880.41 -650.13,5524.62 -2314.22,7578.08 -1662.62,2051.68 -4321.62,3492.9 -8333.15,3960.58 -692.54,80.72 -1239.85,-288.31 -1806.69,-670.51 -442.69,-298.51 -900.32,-607.08 -1376.42,-607.08 -494.83,0 -983.16,328.53 -1439.34,635.42 -544.25,366.14 -1052.1,707.78 -1646.25,637.35 -3722.25,-441.27 -6323.84,-1724.08 -8046.16,-3555.82 -1975.97,-2101.51 -2778.67,-4904.59 -2778.67,-7978.02 0,-155.27 3.33,-337.33 10.07,-546.87 1.31,-40.77 2.73,-80.95 4.25,-120.53 -3.88,-3.68 -7.7,-7.42 -11.46,-11.28 -44.92,-46.18 -76.37,-100.47 -94.49,-157.99 -2215.69,-916.77 -3797.86,-2297.15 -4862.98,-3992.48 -1251.49,-1991.95 -1780.61,-4405.88 -1780.61,-7003 0,-2590.18 526.8,-4998.57 1772.37,-6988.3 1080.71,-1726.37 2694.33,-3126.99 4962.95,-4045.33 4.38,-2942.67 816.14,-5625.57 2797.93,-7637.28 1729.71,-1755.8 4339.94,-2984.47 8068.61,-3404.68 659.41,-74.31 1164.15,217.49 1690.36,521.69 409.06,236.48 834.41,482.39 1313.45,482.39zm-7223.24 25198.1c157.92,-153.6 410.47,-150.11 564.07,7.81 153.6,157.92 150.11,410.47 -7.81,564.07l-3315.39 3219.73c-17.15,28.2 -38.11,54.72 -62.87,78.8l-2999.66 2913.12c-8.34,140.36 -14.54,273.73 -18.6,400.16 -4.65,144.61 -6.95,318.88 -6.95,521.87 0,2881.14 739.5,5495.06 2559.93,7431.14 722.39,768.28 1617.47,1433.13 2707.01,1969.53l2823.55 -2773.03c157.05,-154.46 409.61,-152.36 564.07,4.69 154.46,157.05 152.36,409.61 -4.69,564.07l-2600.08 2553.56c1157.61,466.99 2506.93,804.97 4068.8,990.12 303.04,35.92 691.95,-225.71 1108.73,-506.09 439.72,-295.82 904,-608.11 1443.13,-725.03l0 -12905.34 -4259.61 4368.87 -6.25 6.25c-38.68,38.12 -44.26,43.65 -44.15,43.76 40.33,40.92 92.28,91.26 152.42,149.53 56.78,55.01 120.89,117.14 197.19,192.86l2043.33 1964.15c158.78,152.73 163.67,405.28 10.94,564.06 -152.73,158.78 -405.28,163.67 -564.06,10.94l-2043.31 -1964.17 -4.69 -4.69c-69.57,-69.09 -136.49,-133.94 -195.66,-191.27 -62.3,-60.37 -116.1,-112.49 -164.92,-162.03l-2.54 -2.59 -2293.41 2284.53c-156.19,155.33 -408.73,154.63 -564.06,-1.56 -155.33,-156.19 -154.63,-408.73 1.56,-564.06l2933.49 -2922.13c18.1,-18 37.51,-33.89 57.9,-47.7l4745.83 -4867.56 0 -6462.53 -3418.37 3266.65c-159.64,151.87 -412.19,145.58 -564.06,-14.06 -151.87,-159.64 -145.58,-412.19 14.06,-564.06l3847.85 -3677.07 -2323.97 -2248.74c-157.92,-153.6 -161.41,-406.15 -7.81,-564.07 153.6,-157.92 406.15,-161.41 564.07,-7.81l2502.01 2421.01 1939.42 -7.51c71.08,-234.47 199.08,-444.2 367.96,-613.08 266.32,-266.31 634.22,-431.04 1040.52,-431.04 406.32,0 774.21,164.73 1040.52,431.04 266.31,266.31 431.04,634.2 431.04,1040.52 0,406.3 -164.73,774.2 -431.04,1040.52 -266.31,266.31 -634.2,431.04 -1040.52,431.04 -406.3,0 -774.2,-164.73 -1040.52,-431.04 -182.67,-182.68 -317.53,-413.15 -384.24,-671.02l-1736.92 6.73 0 10152.66 5774.98 8.87c69.12,-246.04 200.61,-466.02 376.34,-641.76 266.32,-266.31 634.22,-431.04 1040.52,-431.04 406.32,0 774.21,164.73 1040.52,431.04 266.31,266.32 431.04,634.22 431.04,1040.52 0,406.32 -164.73,774.21 -431.04,1040.52 -266.31,266.31 -634.2,431.04 -1040.52,431.04 -406.3,0 -774.2,-164.73 -1040.52,-431.04 -175.89,-175.89 -307.44,-396.09 -376.52,-642.4l-5774.8 -8.87 0 10137.27c552.83,98.68 1014.31,409.82 1463.27,712.55 442.09,298.08 868.94,585.9 1269.19,539.25 408.77,-47.66 802.34,-105.81 1181.29,-173.91l0 -3568.31c-241.59,-69.93 -457.62,-200.08 -630.73,-373.18 -266.31,-266.31 -431.04,-634.2 -431.04,-1040.52 0,-406.3 164.73,-774.2 431.04,-1040.52 266.32,-266.31 634.22,-431.04 1040.52,-431.04 406.32,0 774.21,164.73 1040.52,431.04 266.31,266.32 431.04,634.22 431.04,1040.52 0,406.32 -164.73,774.21 -431.04,1040.52 -177.77,177.77 -400.81,310.25 -650.31,378.71l0 3399.31c2694.83,-620.31 4574.53,-1791.05 5823.72,-3332.56 1533.76,-1892.64 2132.98,-4365.02 2132.98,-7074.96 0,-202.99 -2.3,-377.26 -6.95,-521.87 -3.41,-106.22 -8.34,-217.32 -14.77,-333.36l-4779.09 -5005.47c-197.3,98.27 -419.76,153.54 -655.12,153.54 -406.3,0 -774.2,-164.73 -1040.52,-431.04 -266.31,-266.31 -431.04,-634.2 -431.04,-1040.52 0,-406.3 164.73,-774.2 431.04,-1040.52 266.32,-266.31 634.22,-431.04 1040.52,-431.04 406.32,0 774.21,164.73 1040.52,431.04 266.31,266.32 431.04,634.22 431.04,1040.52 0,287.37 -82.42,555.51 -224.88,782.1l4657.98 4878.61c2125.16,-849.16 3629.9,-2142.91 4630.88,-3736.14 675.15,-1074.61 1124.14,-2289.76 1382.17,-3600.36l-4098.03 -24.01c-66.76,257.63 -201.55,487.87 -384.08,670.4 -266.31,266.31 -634.2,431.04 -1040.52,431.04 -406.3,0 -774.2,-164.73 -1040.52,-431.04 -266.31,-266.31 -431.04,-634.2 -431.04,-1040.52 0,-406.3 164.73,-774.2 431.04,-1040.52 266.32,-266.31 634.22,-431.04 1040.52,-431.04 406.32,0 774.21,164.73 1040.52,431.04 169.01,169.02 297.08,378.95 368.12,613.64l4245.93 24.88c95.96,-705.61 141.5,-1434.91 141.5,-2181.51 0,-1376.85 -154.44,-2694.9 -494.89,-3913.51l-6151.16 0c-69.93,241.59 -200.08,457.62 -373.18,630.73 -266.31,266.31 -634.2,431.04 -1040.52,431.04 -406.3,0 -774.2,-164.73 -1040.52,-431.04 -266.31,-266.32 -431.04,-634.22 -431.04,-1040.52 0,-406.32 164.73,-774.21 431.04,-1040.52 266.32,-266.31 634.22,-431.04 1040.52,-431.04 406.32,0 774.21,164.73 1040.52,431.04 177.77,177.77 310.25,400.81 378.71,650.31l5889.75 0c-237,-653.73 -534.03,-1273.72 -896.6,-1852.91 -1015.63,-1622.39 -2554.18,-2935.55 -4739.17,-3786.59l-6344.92 0c-69.93,241.59 -200.08,457.62 -373.18,630.73 -266.31,266.31 -634.2,431.04 -1040.52,431.04 -406.3,0 -774.2,-164.73 -1040.52,-431.04 -266.31,-266.32 -431.04,-634.22 -431.04,-1040.52 0,-406.32 164.73,-774.21 431.04,-1040.52 266.32,-266.31 634.22,-431.04 1040.52,-431.04 406.32,0 774.21,164.73 1040.52,431.04 177.77,177.77 310.25,400.81 378.71,650.31l5989.98 0c-25.47,-2693.9 -773.22,-5135.21 -2560.43,-6952.72 -1083.34,-1101.71 -2553.44,-1981.61 -4481.5,-2559.77l0 3310.24c241.6,69.92 457.63,200.09 630.73,373.19 266.31,266.31 431.04,634.2 431.04,1040.52 0,406.3 -164.73,774.2 -431.04,1040.52 -266.31,266.31 -634.2,431.04 -1040.52,431.04 -406.3,0 -774.2,-164.73 -1040.52,-431.04 -266.31,-266.32 -431.04,-634.22 -431.04,-1040.52 0,-406.32 164.73,-774.21 431.04,-1040.52 177.77,-177.76 400.81,-310.24 650.31,-378.7l0 -3520.79c-706.79,-170.8 -1469.09,-304.5 -2289.82,-397.83 -411.86,-46.83 -802.64,179.37 -1210.93,415.72 -401.28,232.29 -816.05,472.33 -1327.04,558.69l0 9899.41 4524.42 4738.73c216.54,-125.35 467.94,-197.12 736.09,-197.12 406.32,0 774.21,164.73 1040.52,431.04 266.31,266.31 431.04,634.2 431.04,1040.52 0,406.3 -164.73,774.2 -431.04,1040.52 -266.31,266.31 -634.2,431.04 -1040.52,431.04 -406.3,0 -774.2,-164.73 -1040.52,-431.04 -266.31,-266.32 -431.04,-634.22 -431.04,-1040.52 0,-254.42 64.59,-493.76 178.26,-702.54l-4360.91 -4567.48 -5071.59 4982.71c-157.05,154.46 -409.61,152.36 -564.07,-4.69 -154.46,-157.05 -152.36,-409.61 4.69,-564.07l5224.67 -5133.11 0 -9924.5c-500.55,-87.25 -913.36,-325.89 -1313.45,-557.2 -409.41,-236.68 -802.12,-463.71 -1202.86,-418.55 -643.18,72.49 -1250.43,169.8 -1823.37,290.22l1.95 6482.84 2291.91 2801.57c139.79,170.86 114.61,422.72 -56.25,562.51 -170.86,139.79 -422.72,114.61 -562.51,-56.25l-2071.55 -2532.21 -2071.57 2532.21c-139.79,170.86 -391.65,196.04 -562.51,56.25 -170.86,-139.79 -196.04,-391.65 -56.25,-562.51l2291.84 -2801.48 -1.89 -6294.99c-2168.51,570.31 -3794.15,1501.45 -4967.15,2692.14 -1822.94,1850.46 -2566.79,4348.55 -2566.79,7101.82 0,167.95 -1.79,30.72 -1.07,120.77l0 1.57c0.1,13.46 0.24,27.57 0.41,42.33l2814.12 2733.77c157.92,153.6 161.41,406.15 7.81,564.07 -153.6,157.92 -406.15,161.41 -564.07,7.81l-2811.62 -2731.34c-2076.22,852.28 -3549.98,2133.32 -4533.43,3704.31 -1157.72,1849.39 -1647.37,4114.69 -1647.37,6566.42 0,1173.71 112.41,2304.74 356.7,3368l9979.5 -9806.24c157.05,-154.46 409.61,-152.36 564.07,4.69 154.46,157.05 152.36,409.61 -4.69,564.07l-3912.74 3844.81 3110.77 3021.01c157.92,153.6 161.41,406.15 7.81,564.07 -153.6,157.92 -406.15,161.41 -564.07,7.81l-3123.71 -3033.58 -5818.11 5717.1c259.61,829.08 609.44,1609 1060.08,2326.26 994.62,1583.1 2486.68,2870.48 4590.49,3719.85l2684.6 -2607.15 -3081.13 -2992.23c-157.92,-153.6 -161.41,-406.15 -7.81,-564.07 153.6,-157.92 406.15,-161.41 564.07,-7.81l3088.3 2999.19 3088.3 -2999.19zm10784.92 -4935.94c-185.48,0 -353.39,75.16 -474.9,196.66 -121.5,121.5 -196.66,289.41 -196.66,474.9 0,185.48 75.16,353.39 196.66,474.9 121.51,121.5 289.42,196.66 474.9,196.66 185.49,0 353.4,-75.16 474.9,-196.66 121.5,-121.51 196.66,-289.42 196.66,-474.9 0,-185.49 -75.16,-353.4 -196.66,-474.9 -121.5,-121.5 -289.41,-196.66 -474.9,-196.66zm10922.82 2917.96c-121.5,-121.5 -289.41,-196.66 -474.9,-196.66 -185.48,0 -353.39,75.16 -474.9,196.66 -121.5,121.51 -196.66,289.42 -196.66,474.9 0,185.49 75.16,353.4 196.66,474.9 121.51,121.5 289.42,196.66 474.9,196.66 185.49,0 353.4,-75.16 474.9,-196.66 121.5,-121.5 196.66,-289.41 196.66,-474.9 0,-185.48 -75.16,-353.39 -196.66,-474.9zm-9286.06 15787.42c121.5,-121.5 196.66,-289.41 196.66,-474.9 0,-185.48 -75.16,-353.39 -196.66,-474.9 -121.5,-121.5 -289.41,-196.66 -474.9,-196.66 -185.48,0 -353.39,75.16 -474.9,196.66 -121.5,121.51 -196.66,289.42 -196.66,474.9 0,185.49 75.16,353.4 196.66,474.9 121.51,121.5 289.42,196.66 474.9,196.66 185.49,0 353.4,-75.16 474.9,-196.66zm1918.5 -6622.4c121.51,121.5 289.42,196.66 474.9,196.66 185.49,0 353.4,-75.16 474.9,-196.66 121.5,-121.5 196.66,-289.41 196.66,-474.9 0,-185.48 -75.16,-353.39 -196.66,-474.9 -121.5,-121.5 -289.41,-196.66 -474.9,-196.66 -185.48,0 -353.39,75.16 -474.9,196.66 -121.5,121.51 -196.66,289.42 -196.66,474.9 0,185.49 75.16,353.4 196.66,474.9zm5103.88 -16071.83c-121.5,-121.5 -289.41,-196.66 -474.9,-196.66 -185.48,0 -353.39,75.16 -474.9,196.66 -121.5,121.5 -196.66,289.41 -196.66,474.9 0,185.48 75.16,353.39 196.66,474.9 121.51,121.5 289.42,196.66 474.9,196.66 185.49,0 353.4,-75.16 474.9,-196.66 121.5,-121.51 196.66,-289.42 196.66,-474.9 0,-185.49 -75.16,-353.4 -196.66,-474.9zm-4131.4 8976.73c-121.5,-121.5 -289.41,-196.66 -474.9,-196.66 -185.48,0 -353.39,75.16 -474.9,196.66 -121.5,121.51 -196.66,289.42 -196.66,474.9 0,185.49 75.16,353.4 196.66,474.9 121.51,121.5 289.42,196.66 474.9,196.66 185.49,0 353.4,-75.16 474.9,-196.66 121.5,-121.5 196.66,-289.41 196.66,-474.9 0,-185.48 -75.16,-353.39 -196.66,-474.9zm-1954.01 -9045.83c-121.5,-121.5 -289.41,-196.66 -474.9,-196.66 -185.48,0 -353.39,75.16 -474.9,196.66 -121.5,121.5 -196.66,289.41 -196.66,474.9 0,185.48 75.16,353.39 196.66,474.9 121.51,121.5 289.42,196.66 474.9,196.66 185.49,0 353.4,-75.16 474.9,-196.66 121.5,-121.51 196.66,-289.42 196.66,-474.9 0,-185.49 -75.16,-353.4 -196.66,-474.9zm-992.31 -11549.15c-121.5,121.5 -196.66,289.41 -196.66,474.9 0,185.48 75.16,353.39 196.66,474.9 121.51,121.5 289.42,196.66 474.9,196.66 185.49,0 353.4,-75.16 474.9,-196.66 121.5,-121.51 196.66,-289.42 196.66,-474.9 0,-185.49 -75.16,-353.4 -196.66,-474.9 -121.5,-121.5 -289.41,-196.66 -474.9,-196.66 -185.48,0 -353.39,75.16 -474.9,196.66zm992.31 5178.75c-121.5,-121.5 -289.41,-196.66 -474.9,-196.66 -185.48,0 -353.39,75.16 -474.9,196.66 -121.5,121.5 -196.66,289.41 -196.66,474.9 0,185.48 75.16,353.39 196.66,474.9 121.51,121.5 289.42,196.66 474.9,196.66 185.49,0 353.4,-75.16 474.9,-196.66 121.5,-121.51 196.66,-289.42 196.66,-474.9 0,-185.49 -75.16,-353.4 -196.66,-474.9z" style="fill: #f6f6f6; fill-rule: nonzero;"></path></g></g><g id="SvgjsG1018" featurekey="nameFeature-0" transform="matrix(0.7530957095396958,0,0,0.7530957095396958,104.28294198334774,20.462574677886465)" fill="#f6f6f6"><path d="M10.88 40 l-8.6 0 l0 -24.48 l8.6 0 c7.48 0 12.6 4.88 12.6 12.24 c0 7.56 -5.4 12.24 -12.6 12.24 z M8.28 21.08 l0 13.36 l2.6 0 c4.24 0 6.6 -2.68 6.6 -6.68 c0 -0.92 -0.12 -1.76 -0.36 -2.6 c-1.04 -2.92 -3.32 -4.08 -6.24 -4.08 l-2.6 0 z M44.751000000000005 35.04 l-9 0 l-1.76 4.96 l-6.52 0 l9.8 -24.48 l6 0 l9.8 24.48 l-6.56 0 z M37.711 29.48 l5.08 0 l-2.52 -7.12 z M53.662000000000006 15.52 l20.4 0 l0 5.56 l-7.2 0 l0 18.92 l-6 0 l0 -18.92 l-7.2 0 l0 -5.56 z M94.733 35.04 l-9 0 l-1.76 4.96 l-6.52 0 l9.8 -24.48 l6 0 l9.8 24.48 l-6.56 0 z M87.69300000000001 29.48 l5.08 0 l-2.52 -7.12 z M119.07500000000002 15.52 l18.2 0 l0 5.56 l-12.2 0 l0 3.92 l9.8 0 l0 5.56 l-9.8 0 l0 3.88 l12.2 0 l0 5.56 l-18.2 0 l0 -24.48 z M158.666 15.52 l6 0 l0 24.48 l-6 0 l-9.6 -14.32 l0 14.32 l-6 0 l0 -24.48 l6 0 l9.6 14.32 l0 -14.32 z M193.29700000000003 25 l0 13.6 c-2.84 1.08 -6.4 1.68 -9.44 1.68 c-7.8 0 -13.04 -4.68 -13.04 -12.4 c0 -8.44 6.28 -12.56 13.96 -12.56 c0.52 0 1.08 0 1.72 0.04 c0.6 0.04 1.24 0.12 1.92 0.16 c1.24 0.16 2.48 0.32 3.68 0.68 l0 6.12 c-0.44 -0.2 -0.92 -0.36 -1.48 -0.52 c-0.6 -0.12 -1.2 -0.24 -1.84 -0.36 c-1.28 -0.24 -2.64 -0.32 -3.96 -0.32 c-5.08 0 -8 1.56 -8 6.76 c0 5.08 2.68 6.6 7.24 6.6 c0.48 0 1 -0.04 1.56 -0.08 c0.52 -0.04 1.08 -0.08 1.68 -0.12 l0 -3.72 l-5.2 0 l0 -5.56 l11.2 0 z M199.44800000000004 15.52 l6 0 l0 24.48 l-6 0 l0 -24.48 z M227.95900000000003 15.52 l6 0 l0 24.48 l-6 0 l-9.6 -14.32 l0 14.32 l-6 0 l0 -24.48 l6 0 l9.6 14.32 l0 -14.32 z M240.95000000000005 15.52 l18.2 0 l0 5.56 l-12.2 0 l0 3.92 l9.8 0 l0 5.56 l-9.8 0 l0 3.88 l12.2 0 l0 5.56 l-18.2 0 l0 -24.48 z M264.94100000000003 15.52 l18.2 0 l0 5.56 l-12.2 0 l0 3.92 l9.8 0 l0 5.56 l-9.8 0 l0 3.88 l12.2 0 l0 5.56 l-18.2 0 l0 -24.48 z M294.932 21.16 l0 5.84 l5.6 0 c1.84 0 2.92 -1.08 2.92 -2.92 s-1.08 -2.92 -2.92 -2.92 l-5.6 0 z M304.01200000000006 30.96 c1.12 1.52 2.24 3.04 3.4 4.52 c1.12 1.48 2.24 3 3.36 4.52 l-7.32 0 c-1.44 -1.92 -2.84 -3.84 -4.24 -5.76 c-1.4 -1.88 -2.84 -3.8 -4.28 -5.72 l0 11.48 l-6 0 l0 -24.48 l11.6 0 c4.56 0 8.44 3.48 8.44 8.08 c0 3.24 -2 6.08 -4.96 7.36 z M315.64300000000003 15.52 l6 0 l0 24.48 l-6 0 l0 -24.48 z M344.154 15.52 l6 0 l0 24.48 l-6 0 l-9.6 -14.32 l0 14.32 l-6 0 l0 -24.48 l6 0 l9.6 14.32 l0 -14.32 z M378.785 25 l0 13.6 c-2.84 1.08 -6.4 1.68 -9.44 1.68 c-7.8 0 -13.04 -4.68 -13.04 -12.4 c0 -8.44 6.28 -12.56 13.96 -12.56 c0.52 0 1.08 0 1.72 0.04 c0.6 0.04 1.24 0.12 1.92 0.16 c1.24 0.16 2.48 0.32 3.68 0.68 l0 6.12 c-0.44 -0.2 -0.92 -0.36 -1.48 -0.52 c-0.6 -0.12 -1.2 -0.24 -1.84 -0.36 c-1.28 -0.24 -2.64 -0.32 -3.96 -0.32 c-5.08 0 -8 1.56 -8 6.76 c0 5.08 2.68 6.6 7.24 6.6 c0.48 0 1 -0.04 1.56 -0.08 c0.52 -0.04 1.08 -0.08 1.68 -0.12 l0 -3.72 l-5.2 0 l0 -5.56 l11.2 0 z"></path></g><g id="SvgjsG1019" featurekey="sloganFeature-0" transform="matrix(1.4086358382500026,0,0,1.4086358382500026,135.00000016792248,53.30884961279961)" fill="#f6f6f6"><path d="M4.7 10.62 l0 1.88 l-2.82 0 l0 7.46 l-1.88 0 l0 -14.24 l4.66 0 l0 1.9 l-2.78 0 l0 3 l2.82 0 z M10.428 20.02 c-1.5 0 -2.7 -1.22 -2.7 -2.7 l0 -8.98 c0 -1.48 1.2 -2.68 2.7 -2.68 c1.48 0 2.68 1.2 2.68 2.68 l0 8.98 c0 1.48 -1.2 2.7 -2.68 2.7 z M10.428 7.5600000000000005 c-0.44 0 -0.78 0.36 -0.78 0.78 l0 8.98 c0 0.44 0.34 0.78 0.78 0.78 c0.42 0 0.78 -0.34 0.78 -0.78 l0 -8.98 c0 -0.42 -0.36 -0.78 -0.78 -0.78 z M21.616 20.04 l-2.04 0 l-1.1 -3.02 l-0.44 0 l0 3.02 l-1.9 0 l0 -14.32 l2.98 0 c1.32 0 2.38 1.06 2.38 2.38 l0 6.54 c0 0.86 -0.44 1.6 -1.12 2.02 z M18.035999999999998 7.619999999999999 l0 7.5 l1.08 0 c0.26 0 0.48 -0.22 0.48 -0.48 l0 -6.54 c0 -0.26 -0.22 -0.48 -0.48 -0.48 l-1.08 0 z M36.471999999999994 5.68 l3.34 0 l0 14.28 l-1.88 0 l0 -11.3 l-1.78 11.34 l-0.74 0 l-0.18 -0.04 l-0.16 0.04 l-0.74 0 l-1.76 -11.34 l0 11.3 l-1.9 0 l0 -14.28 l3.36 0 l1.22 8.08 z M47.739999999999995 20 l-0.72 -4.94 l-2.02 0 l-0.66 4.94 l-1.92 0 l2.16 -14.3 l2.58 0 l2.5 14.3 l-1.92 0 z M45.25999999999999 13.16 l1.48 0 l-0.76 -5.2 z M55.367999999999995 19.96 c-1.48 0 -2.68 -1.2 -2.68 -2.68 l0 -8.88 c0 -1.48 1.2 -2.68 2.68 -2.68 s2.68 1.2 2.68 2.68 l0 0.8 l-1.9 0 l0 -0.8 c0 -0.42 -0.36 -0.78 -0.78 -0.78 s-0.78 0.36 -0.78 0.78 l0 8.88 c0 0.42 0.36 0.78 0.78 0.78 s0.78 -0.36 0.78 -0.78 l0 -1.28 l1.9 0 l0 1.28 c0 1.48 -1.2 2.68 -2.68 2.68 z M64.67599999999999 5.720000000000001 l1.9 0 l0 14.26 l-1.9 0 l0 -7.54 l-1.7 0 l0 7.54 l-1.9 0 l0 -14.26 l1.9 0 l0 4.84 l1.7 0 l0 -4.84 z M71.504 5.68 l0 14.24 l-1.9 0 l0 -14.24 l1.9 0 z M79.172 16.72 l0.08 -11.08 l1.92 0 l-0.12 14.44 l-2.98 0 l-1.62 -11.18 l0 11.18 l-1.92 0 l0 -14.44 l3.1 0 z M88.86 12.46 l-2.76 0 l0 5.64 l2.78 0 l0 1.9 l-4.68 0 l0 -14.28 l4.68 0 l0 1.9 l-2.78 0 l0 2.94 l2.76 0 l0 1.9 z M99.816 18.12 l2.76 0 l0 1.88 l-4.64 0 l0 -14.36 l1.88 0 l0 12.48 z M110.26400000000001 12.46 l-2.76 0 l0 5.64 l2.78 0 l0 1.9 l-4.68 0 l0 -14.28 l4.68 0 l0 1.9 l-2.78 0 l0 2.94 l2.76 0 l0 1.9 z M118.17200000000003 20 l-0.72 -4.94 l-2.02 0 l-0.66 4.94 l-1.92 0 l2.16 -14.3 l2.58 0 l2.5 14.3 l-1.92 0 z M115.69200000000002 13.16 l1.48 0 l-0.76 -5.2 z M128.32000000000002 20.04 l-2.04 0 l-1.1 -3.02 l-0.44 0 l0 3.02 l-1.9 0 l0 -14.32 l2.98 0 c1.32 0 2.38 1.06 2.38 2.38 l0 6.54 c0 0.86 -0.44 1.6 -1.12 2.02 z M124.74000000000002 7.619999999999999 l0 7.5 l1.08 0 c0.26 0 0.48 -0.22 0.48 -0.48 l0 -6.54 c0 -0.26 -0.22 -0.48 -0.48 -0.48 l-1.08 0 z M135.988 16.72 l0.08 -11.08 l1.92 0 l-0.12 14.44 l-2.98 0 l-1.62 -11.18 l0 11.18 l-1.92 0 l0 -14.44 l3.1 0 z M142.91600000000003 5.68 l0 14.24 l-1.9 0 l0 -14.24 l1.9 0 z M150.584 16.72 l0.08 -11.08 l1.92 0 l-0.12 14.44 l-2.98 0 l-1.62 -11.18 l0 11.18 l-1.92 0 l0 -14.44 l3.1 0 z M158.51200000000003 20.16 l-0.44 0 c-1.4 0 -2.52 -1.12 -2.52 -2.52 l0 -9.64 c0 -1.4 1.12 -2.54 2.52 -2.54 l0.44 0 c1.4 0 2.52 1.14 2.52 2.54 l0 1.02 l-1.96 0 l0 -1.02 c0 -0.34 -0.24 -0.58 -0.56 -0.58 l-0.44 0 c-0.3 0 -0.58 0.24 -0.58 0.58 l0 9.64 c0 0.3 0.28 0.58 0.58 0.58 l0.44 0 c0.32 0 0.56 -0.28 0.56 -0.58 l0 -5.2 l-1.12 0 l0 -1.94 l3.08 0 l0 7.14 c0 1.4 -1.12 2.52 -2.52 2.52 z"></path></g></svg>
